<svg width="440" height="236" viewBox="0 0 440 236" fill="none" xmlns="http://www.w3.org/2000/svg">
<path d="M367 193.421C367 206.51 366.56 218.749 366.03 220.61C364.42 226.22 360.78 230.601 355.55 233.231C351.51 235.261 349.14 235.711 342.55 235.711C333.36 235.711 327.75 233.581 323.45 228.471L320.9 225.441L325.91 222.57C331.23 219.541 333 219.081 333 220.721C333 222.691 339.491 225.701 343.73 225.711C346.97 225.711 348.71 225.041 351.14 222.881C353.85 220.451 354.38 219.201 354.8 214.131L355.29 208.221L351.26 211.86C344.11 218.32 333.95 217.891 326.9 210.841C322.58 206.531 321.01 201.671 321.02 192.711C321.02 184.081 324.28 176.871 329.85 173.191C337.13 168.381 346.76 168.631 351.9 173.761L354.87 176.74L355.19 173.471C355.5 170.241 355.56 170.21 361.25 169.91L367 169.61V193.421ZM244.91 169.511C258.45 169.511 266.93 177.751 266.98 190.961L267 196.711H232.87L233.54 198.961C234.88 203.491 238.51 206 244.39 206.49C249.55 206.92 250.12 206.74 253.13 203.74L256.34 200.53L261.17 202.791C263.829 204.031 265.999 205.24 266 205.481C266 207.361 261.05 212.001 256.8 214.121C244.95 220.031 229.13 215.81 224.09 205.401C215.78 188.231 226.64 169.511 244.91 169.511ZM379.66 175.511C389.31 166.351 407.06 167.821 414.37 178.371C416.68 181.701 417.36 183.941 417.76 189.621L418.27 196.711H401.13C381.8 196.711 381.12 197.031 387.4 203.311C390.17 206.081 391.56 206.711 394.95 206.711C399.55 206.711 404.39 204.621 405.86 202.001C406.75 200.411 407.19 200.461 411.91 202.671C414.71 203.981 417 205.371 417 205.751C416.999 207.502 407.819 214.671 404.35 215.631C396.51 217.811 386.869 216.481 380.56 212.341C379.2 211.451 376.83 208.581 375.3 205.971C372.9 201.891 372.5 200.151 372.52 193.711C372.55 185.411 374.51 180.401 379.66 175.511ZM51.5 156.211C62.9098 156.211 67.2697 157.841 72.8496 164.191C75.8796 167.651 79 173.691 79 176.121C78.9987 176.761 76.319 178.001 73.0498 178.881L67.1104 180.471L66.4805 177.641C63.5805 164.401 43.0998 162.741 36.5898 175.211C33.71 180.721 33.6803 192.771 36.5303 197.631C39.5002 202.711 43.1904 204.98 49.3203 205.49C58.3402 206.23 64.9304 201.631 66.6904 193.351C67.2804 190.551 67.3901 190.5 72.3398 191.16C79.9398 192.17 80.1299 192.401 78.1699 198.221C75.8099 205.171 71.9095 209.89 65.7695 213.24C61.4697 215.58 59.0797 216.151 52.5098 216.391C38.9299 216.891 30.51 212.55 25.29 202.36C21.8601 195.66 21.0004 183.66 23.3604 175.53C25.2505 169.041 31.2803 161.681 37.3701 158.421C40.8401 156.561 43.1 156.211 51.5 156.211ZM96 150.711V178.631L99.75 174.691C108.37 165.631 123.74 168.911 126.96 180.501C127.53 182.542 127.99 191.302 127.99 199.961L128 215.711H116V201.16C116 182.241 114.86 179.711 106.35 179.711C97.82 179.711 96 183.671 96 202.181V215.711H84V150.711H96ZM143 195.711C144.33 195.711 145 196.381 145 197.711C145 199.961 146.04 200.271 147.76 198.551C148.63 197.681 149.3 197.71 150.48 198.7C151.9 199.87 151.89 200.171 150.37 201.851C148.78 203.611 148.81 203.711 150.85 203.711C152.33 203.711 153 204.331 153 205.711C153 207.091 152.329 207.711 150.85 207.711C148.81 207.711 148.78 207.811 150.37 209.57C151.89 211.25 151.9 211.551 150.48 212.721C149.301 213.711 148.63 213.741 147.76 212.871C146.04 211.151 145 211.461 145 213.711C145 215.041 144.33 215.711 143 215.711C141.63 215.711 141 215.041 141 213.591C141 211.811 140.75 211.671 139.5 212.711C138.3 213.701 137.69 213.701 136.47 212.691C135.11 211.561 135.13 211.22 136.63 209.57C138.23 207.801 138.18 207.711 135.65 207.711C133.671 207.711 133 207.211 133 205.711C133 204.211 133.67 203.711 135.65 203.711C138.18 203.711 138.23 203.621 136.63 201.851C135.13 200.201 135.11 199.861 136.47 198.731C137.69 197.721 138.3 197.721 139.5 198.711C140.75 199.751 141 199.611 141 197.831C141 196.381 141.63 195.711 143 195.711ZM169 195.711C170.37 195.711 171 196.381 171 197.831C171 199.641 171.23 199.761 172.55 198.671C173.83 197.611 174.38 197.661 175.71 199.001C177.05 200.331 177.1 200.881 176.04 202.16C174.95 203.48 175.07 203.711 176.88 203.711C178.33 203.711 179 204.341 179 205.711C179 207.041 178.33 207.711 177 207.711C174.73 207.711 174.44 208.751 176.2 210.511C178.2 212.511 175.52 214.52 172.98 212.931C171.251 211.851 171 211.951 171 213.7C171 215.04 170.34 215.711 169 215.711C167.66 215.711 167 215.04 167 213.7C167 211.951 166.749 211.851 165.02 212.931C162.17 214.71 160 212.54 161.78 209.691C162.86 207.961 162.76 207.711 161.01 207.711C159.67 207.711 159 207.051 159 205.711C159 204.371 159.67 203.711 161.01 203.711C162.76 203.711 162.86 203.461 161.78 201.731C160.19 199.191 162.2 196.511 164.2 198.511C165.96 200.271 167 199.981 167 197.711C167 196.381 167.67 195.711 169 195.711ZM197 150.711V215.711H185V150.711H197ZM216 150.711V215.711H204V150.711H216ZM287.8 174.641C296.38 165.631 311.75 168.951 314.96 180.501C315.53 182.542 315.99 191.302 315.99 199.961L316 215.711H304V201.16C304 182.241 302.86 179.711 294.35 179.711C285.82 179.711 284 183.671 284 202.181V215.711H272V169.61L277.75 169.91L283.5 170.211L283.8 174.36L284.11 178.521L287.8 174.641ZM348.75 179.99C338.64 176.69 331.85 183.851 333.26 196.311C333.78 200.941 336.03 204.341 339.5 205.761C348.22 209.331 355.99 203.421 355.99 193.211C356 186.191 353.44 181.52 348.75 179.99ZM249.2 180.021C243.21 177.521 235.21 180.991 233.7 186.74C233.21 188.62 233.73 188.711 244.5 188.711C255.73 188.711 255.81 188.691 255.26 186.461C254.47 183.211 252.94 181.581 249.2 180.021ZM406 186.931C406 178.491 390.69 176.261 385.96 184.011C384.89 185.771 384.01 187.551 384 187.961C384.003 188.371 388.952 188.711 395 188.711C404.87 188.711 406 188.531 406 186.931ZM156 170.711C157.38 170.711 158 171.381 158 172.86C158 174.9 158.1 174.931 159.86 173.341C161.51 171.841 161.85 171.821 162.98 173.181C163.99 174.401 163.99 175.011 163 176.211C161.96 177.461 162.1 177.711 163.88 177.711C165.47 177.711 166 178.331 166 180.211C166 182.091 165.47 182.711 163.88 182.711C162.1 182.711 161.96 182.961 163 184.211C163.99 185.411 163.99 186.021 162.97 187.251C161.84 188.611 161.359 188.47 158.85 186.061L156 183.341L153.15 186.061C150.641 188.47 150.16 188.611 149.03 187.251C148.01 186.021 148.01 185.411 149 184.211C150.04 182.961 149.9 182.711 148.12 182.711C146.53 182.711 146 182.091 146 180.211C146 178.331 146.53 177.711 148.12 177.711C149.9 177.711 150.04 177.461 149 176.211C148.01 175.011 148.01 174.401 149.02 173.181C150.15 171.821 150.49 171.841 152.14 173.341C153.9 174.931 154 174.9 154 172.86C154 171.381 154.62 170.711 156 170.711ZM237.02 99.2003C243.72 94.2503 256.72 93.7012 263.22 98.0812C269.11 102.051 270.35 105.611 270.72 119.591C271.08 132.821 271.58 134.18 275.75 133.2C277.8 132.72 278 133.031 278 136.721C278 140.141 277.6 140.911 275.43 141.731C269.11 144.14 261.92 141.8 260.17 136.78L259.13 133.78L255.77 137.141C253.92 138.991 250.63 141.001 248.45 141.601C242.87 143.151 239.12 142.951 234.48 140.841C225.621 136.821 225.8 124.391 234.77 119.841C236.82 118.791 242.1 117.171 246.5 116.221C255.53 114.271 259 112.501 259 109.841C259 104.251 247.96 102.601 243.09 107.471C241.57 108.991 240.13 110.83 239.88 111.57C239.51 112.69 238.66 112.701 234.97 111.651C232.51 110.951 230.121 110.041 229.65 109.641C228.47 108.631 233.07 102.11 237.02 99.2003ZM293.52 78.7111C293.78 78.7111 294 82.5311 294 87.2111V95.7111H307V105.711H294V116.761C294 127.151 294.14 127.951 296.45 130.261C299.14 132.941 300.56 133.21 304.43 131.731C306.97 130.771 307 130.811 307 135.641C307 140.211 306.8 140.58 303.85 141.61C298.76 143.39 292.52 142.751 288.38 140.041C284.38 137.421 283 131.811 283 118.191V105.711H273V95.7111H283V84.881L288.02 81.8009C290.768 80.1019 293.247 78.7126 293.52 78.7111ZM334.21 103.121C340.07 96.4512 349.28 93.6306 358.5 95.6906C369.64 98.1906 376 106.551 376 118.711C376 130.381 369.93 138.811 359.5 141.621C351.87 143.681 344.3 142.501 337.91 138.271C327.78 131.561 325.79 112.711 334.21 103.121ZM27 81.7111V141.711H15V81.7111H27ZM47.6104 100.721C52.2203 95.6209 57.5901 93.9606 64 95.6505C66.4699 96.3005 69.5698 97.8207 70.8799 99.0206C75.3399 103.121 76 106.451 76 124.681V141.711H64V126.341C64 112.571 63.8002 110.721 62.0303 108.481C58.0804 103.461 49.3404 104.341 46.2402 110.07C44.9302 112.49 44.4597 116.471 44.1797 127.461L43.8096 141.711H32V95.7111H44V104.721L47.6104 100.721ZM105.73 95.2404C110.67 94.4206 116.41 95.9813 119.88 99.0812C124.32 103.061 125 106.431 125 124.681V141.711H113V126.341C113 112.531 112.8 110.721 111.02 108.461C108.5 105.261 104.75 104.311 100.38 105.751C94.7301 107.611 93.5897 111.041 93.1797 127.461L92.8096 141.711H80.96L81.2305 118.961L81.5 96.2111L87.25 95.9103L93 95.6105V104.751L97.25 100.341C100.46 97.021 102.54 95.7704 105.73 95.2404ZM175.9 106.441C175.83 113.21 175.53 116.1 175.07 114.211C174.67 112.561 173.61 109.861 172.71 108.211L171.08 105.211L171.04 108.421C170.94 116.561 159.87 118.51 157.2 110.86C155.86 107.001 157.52 103.711 161.94 101.501L165.35 99.7911L162.42 98.6408C151.08 94.1608 139.31 98.4612 133.75 109.121C131.02 114.341 130.92 122.671 133.52 128.211L135.4 132.211L135.76 128.981C136.15 125.551 139.97 121.711 143 121.711C143.95 121.711 145.92 122.64 147.37 123.78C152.51 127.83 149.62 136.581 143.06 136.791C138.271 136.941 148.01 140.651 153.28 140.681C163.76 140.741 172.499 133.731 175.06 123.211C175.53 121.311 175.83 124.171 175.9 130.961L176 141.711H153.47C136.352 141.711 130.831 141.411 130.49 140.461C130.25 139.771 130.15 129.531 130.27 117.711L130.5 96.2111L153.25 95.9406L176 95.671L175.9 106.441ZM324 95.7111V141.711H312V95.7111H324ZM397.27 100.171C403.02 94.431 408.78 93.3907 415.69 96.8507C424.08 101.061 424.45 102.151 424.81 123.28L425.12 141.711H413V126.271C413 111.581 412.89 110.691 410.7 108.141C407.89 104.881 401.76 104.331 397.72 106.971C394.04 109.381 393.01 114.191 393.01 128.961L393 141.711H381V95.7111H393V104.45L397.27 100.171ZM228.73 98.9103C227.99 100.73 223.81 111.091 219.44 121.95L211.5 141.681L198.5 141.7L189.75 119.391C184.94 107.121 181 96.771 181 96.3908C181 96.0208 183.67 95.7111 186.93 95.7111H192.86L194.81 100.961C196.36 105.151 201.28 119.031 204.65 128.711C204.941 129.54 206.65 126.16 208.46 121.211C210.27 116.261 213.1 108.611 214.75 104.211L217.75 96.2111L223.91 95.9103L230.07 95.6105L228.73 98.9103ZM257.36 127.671C259.52 124.021 259.58 119.271 257.47 120.081C256.629 120.411 253.139 121.391 249.72 122.28C242.64 124.1 240 126.011 240 129.32C240 130.58 240.79 132.071 241.75 132.631C246.45 135.371 254.29 132.881 257.36 127.671ZM356.08 105.621C347.82 103.141 341 108.951 341 118.481C341 124.771 343.31 129.51 347.21 131.2C351.41 133.03 353.27 133.041 357.47 131.291C361.82 129.471 364 125.211 364 118.511C363.99 111.421 361.41 107.211 356.08 105.621ZM311 81.5411C311 75.2112 318.3 71.9604 322.99 76.2003C325.61 78.5703 325.71 84.7507 323.17 87.0607C320.7 89.2906 314.751 89.1907 312.65 86.881C311.74 85.8811 311 83.4711 311 81.5411ZM142.53 22.1505C148.03 20.0407 158.84 20.5609 164.01 23.1808C167.76 25.0708 172 28.5909 172 29.8009C172 30.2112 170.209 31.9608 168.02 33.6906L164.04 36.841L160.48 34.131C156.441 31.0411 148.62 29.7712 145.15 31.631C142.2 33.2109 142.27 37.4811 145.27 38.6212C146.51 39.1012 150.83 40.0012 154.86 40.6212C167.19 42.5312 171.38 45.8213 171.38 53.5812C171.38 59.381 168.65 63.7006 163.39 66.1906C156.29 69.5704 145.38 68.9909 137.17 64.8009C130.37 61.3309 130.07 60.1706 134.76 55.4806L138.86 51.381L142.39 54.4806C148.57 59.9006 160 59.6805 160.8 54.1105C161.24 51.0407 159.21 49.9102 150.94 48.6603C140.28 47.0403 135.28 44.6203 133.43 40.2003C130.42 32.9905 134.3 25.2905 142.53 22.1505ZM419.32 21.2208C429.07 21.2209 434.18 22.9311 438.39 27.591C440.27 29.671 440.25 29.7205 435.89 33.6105L431.5 37.5411L429 35.2511C425.27 31.8312 422.58 30.7111 418.07 30.7111C415.33 30.7111 413.34 31.3711 412 32.7111C408.07 36.641 410.111 38.3711 420.9 40.2511C435.21 42.7511 439 45.5308 439 53.5304C439 59.1904 436.48 63.401 431.57 65.921C422.66 70.491 406.411 68.2406 400.4 61.6007C398.67 59.6807 398.73 59.501 402.66 55.5812L406.71 51.5304L409.5 54.131C416.45 60.5708 429 59.6707 429 52.7208C429 51.1008 423.37 49.0611 416.68 48.2511C405.64 46.9211 401.08 43.6508 400.29 36.5011C399.92 33.1311 400.33 31.4809 402.16 28.8009C406.62 22.3009 409.1 21.2108 419.32 21.2208ZM365 21.7111H378V31.7111H365V42.4904C365 56.3101 366.01 58.1607 373.14 57.4708L378 57.0011V61.7511C378 64.8509 377.52 66.6807 376.63 67.0206C373.74 68.1306 366.391 68.5807 363.94 67.8009C355.34 65.0609 354 61.9507 354 44.8107V31.7111H344V21.7111H354L354.02 15.9611L354.04 10.2111L359.52 7.01087L365 3.80091V21.7111ZM86.5195 32.8507C92.7395 21.4307 106.82 17.5009 119.09 23.7609C125.34 26.9409 129.89 35.8211 129.98 44.9611L130 47.7111H112.39C96.75 47.7111 94.8497 47.8912 95.3896 49.2911C95.7295 50.1608 95.9998 51.23 96 51.6603C96 53.6002 101.48 57.6101 104.93 58.2003C109.51 58.9703 115.32 56.8409 116.95 53.8009L118.07 51.7111L123.03 54.2306C125.769 55.6102 127.999 57.1 128 57.5304C128 58.8004 121.75 64.3606 118.5 65.9806C112.25 69.0906 100.93 68.8111 94.3301 65.3712C84.1601 60.0813 80.3397 44.2007 86.5195 32.8507ZM14.8203 7.71107C32.6499 7.71109 38.6399 9.1108 44.0898 14.5607C52.1398 22.6207 50.9398 38.1909 41.7598 45.0109C36.7599 48.7207 32.5795 49.7111 21.8496 49.7111H12V67.7111H0V7.71107H14.8203ZM189 21.7111V67.7111H177V21.7111H189ZM240 2.71107V67.7111H228V59.4406L225.91 62.1007C224.76 63.5607 222.54 65.4206 220.96 66.2306C216.63 68.4706 208.25 68.0906 203.5 65.4406C197.7 62.2005 194 54.5404 194.01 45.7804C194.01 37.2007 195.41 32.4509 199.2 28.131C203.47 23.281 206.95 21.7111 213.5 21.7111C219.63 21.7111 224.03 23.4808 226.44 26.9308C227.89 28.9905 228 28.2003 228 15.9308V2.71107H240ZM270.33 47.3312C272.55 43.9512 277.21 43.7408 279.44 46.9308C281.44 49.7807 281.41 51.6011 279.35 53.881C277.76 55.6406 277.98 55.7111 284.85 55.7111H292V67.7111H245.9L246.5 56.2111L259.19 55.9308L271.87 55.6505L270.24 52.8107C268.72 50.1608 268.73 49.7809 270.33 47.3312ZM313.01 26.5109C316.64 22.1109 321.66 20.2512 327.71 21.0812C333.49 21.8812 337.77 25.0007 340.09 30.1105C341.67 33.5805 341.96 36.7911 341.98 50.9611L342 67.7111H330.14L329.82 51.7404C329.46 33.5407 328.83 32.0306 321.29 31.0206C317.84 30.5606 316.81 30.9109 313.89 33.5109L310.5 36.5411L310.18 52.131L309.86 67.7111H298V21.7111H310V30.171L313.01 26.5109ZM68.3203 26.881C70.6303 22.641 75.8499 20.3407 81.1299 21.2306C85.4399 21.9606 85.4601 22.0108 83.8701 28.3107L82.7402 32.7911L78.4697 32.1505C68.81 30.7106 67.65 32.7413 67 52.2111L66.5 67.2111L60.96 67.5011C57.9102 67.6711 55.1003 67.4809 54.71 67.091C54.32 66.701 54 56.331 54 44.0411V21.7111H65.8896L66.1904 25.9611L66.5 30.2111L68.3203 26.881ZM226.22 34.8009C222.34 29.6109 212.62 29.6109 208.77 34.8009C204.87 40.0609 205.27 51.0703 209.52 55.3204C212.97 58.7704 222.03 58.7704 225.48 55.3204C229.74 51.0602 230.13 40.0508 226.22 34.8009ZM292 21.7111V33.7111H279.3C269.421 33.7111 266.871 33.9806 267.8 34.9103C269.59 36.7003 269.25 41.1807 267.17 43.0607C264.89 45.1207 263.07 45.1505 260.22 43.1505C257.76 41.4303 257.15 36.3806 259.25 35.0206C259.98 34.5506 257.59 34.0011 253.5 33.7111L246.5 33.2111L245.9 21.7111H292ZM12 40.7111H20.8496C28.3996 40.7111 30.2003 40.3806 33.0703 38.4406C39.14 34.3505 39.4498 25.6306 33.6699 21.3107C31.3799 19.6007 29.0996 19.1505 21.4297 18.8605L12 18.5206V40.7111ZM112.39 31.671C105.87 29.1912 98.1297 32.0313 96.1797 37.6212L95.0996 40.7111H106.55C113.88 40.7111 118 40.3303 118 39.6603C118 37.2302 114.72 32.551 112.39 31.671ZM383 15.6505C383 7.70071 391.15 4.59078 397 10.3107C399.17 12.4407 399.49 13.5908 399.43 19.1808C399.37 24.4808 398.85 26.4106 396.43 30.2306C394.82 32.7805 392.03 35.7807 390.24 36.8908L386.98 38.921L385.49 35.3507C383.49 30.5607 383.58 30.0311 386.53 29.2911C389.23 28.6211 393 25.3611 393 23.7111C393 23.1611 391.75 22.7111 390.22 22.7111C385.6 22.711 383 20.1704 383 15.6505ZM178.03 1.49037C180.91 -0.839309 186.75 -0.358896 188.75 2.38099C190.64 4.97109 190.31 11.1207 188.17 13.0607C185.58 15.4007 179.74 15.1903 177.45 12.6603C174.71 9.63025 175.01 3.93033 178.03 1.49037Z" fill="#71767D"/>
</svg>
