<svg width="390" height="200" viewBox="0 0 390 200" fill="none" xmlns="http://www.w3.org/2000/svg">
<path d="M195.166 118.759C221.085 118.759 232.422 136.089 232.422 163.835H175.087C175.27 169.004 177.478 173.894 181.234 177.449C184.991 181.005 189.995 182.941 195.166 182.839C209.884 182.839 215.707 174.404 217.551 171.774L233.345 180.978C227.505 189.873 216.321 199.999 195.166 199.999C170.016 199.999 155.451 182.515 155.451 159.379C155.451 136.243 170.016 118.759 195.166 118.759ZM278.626 118.759C304.528 118.759 315.883 136.089 315.883 163.835H258.547C258.734 169.003 260.944 173.89 264.699 177.444C268.455 180.999 273.456 182.936 278.626 182.839C293.395 182.839 299.235 174.404 301.011 171.774L316.805 180.978C310.965 189.873 299.781 199.999 278.626 199.999C253.544 199.999 238.911 182.514 238.911 159.379C238.911 136.243 253.476 118.759 278.626 118.759ZM153.159 134.995L112.522 181.915H153.159V198.17H87.3896V183.759L128.47 136.841H91.6748V120.584H153.159V134.995ZM363.304 118.743C381.693 118.743 389.975 128.1 390.009 145.123V198.121H371.227V150.74C371.227 143.62 368.017 136.79 358.353 136.79C349.303 136.79 341.79 142.92 341.79 157.177V198.155H323.009V120.587H341.79V128.253H342.149C344.748 125.196 347.995 122.756 351.654 121.111C355.313 119.466 359.293 118.658 363.304 118.743ZM195.166 134.074C190.56 133.924 186.043 135.372 182.383 138.173C178.723 140.974 176.145 144.956 175.087 149.441H212.804C212.804 145.275 207.733 134.074 195.166 134.074ZM278.626 134.074C274.028 133.936 269.523 135.389 265.874 138.189C262.225 140.99 259.654 144.964 258.598 149.441H296.247C296.247 145.275 291.193 134.074 278.626 134.074ZM119.113 29.7275C145.032 29.7275 156.37 47.0582 156.37 74.8037H99.0342C99.2169 79.9773 101.427 84.8721 105.187 88.4307C108.946 91.9893 113.955 93.927 119.131 93.8252C133.849 93.8251 139.672 85.3908 141.516 82.7783L157.309 91.9639C151.469 100.86 140.286 110.984 119.131 110.984C93.9805 110.984 79.4162 93.5179 79.416 70.3652C79.416 47.2125 93.9801 29.7106 119.113 29.7275ZM74.5977 109.14H55.8154V101.627H55.5088C50.9158 107.142 44.9219 110.983 33.7383 110.983C13.7957 110.983 0 92.7476 0 70.3633C5.49321e-05 47.979 13.7957 29.7093 33.7383 29.709C41.9277 29.573 49.848 32.6359 55.8154 38.2461V0H74.5977V109.14ZM38.0244 46.9033C23.904 46.9033 19.7719 59.1625 19.6182 70.3633C19.7718 81.547 23.921 93.8232 38.0244 93.8232C52.1278 93.8232 56.2594 81.547 56.4131 70.3633C56.2594 59.1625 52.1448 46.9033 38.0244 46.9033ZM119.131 45.0781C114.521 44.9234 110.001 46.3695 106.337 49.1709C102.673 51.9723 100.093 55.9557 99.0342 60.4443H136.769C136.768 56.2609 131.697 45.0782 119.131 45.0781Z" fill="#71767D"/>
</svg>
