<svg width="500" height="446" viewBox="0 0 500 446" fill="none" xmlns="http://www.w3.org/2000/svg">
<path d="M89.53 445.406C83.89 445.146 81.02 444.556 79.72 443.376C77.54 441.416 72 430.386 72 428.026C72 423.826 70.45 423.656 36.82 424.096C33.23 424.146 31.5 426.096 29.48 432.376C28.54 435.266 26.64 439.326 25.25 441.386L22.73 445.136H12.95C7.57 445.136 2.45 444.866 1.58 444.526C-0.93 443.566 -0.29 438.896 3.37 431.466C5.22 427.706 7.43 423.056 8.27 421.136C9.11 419.216 10.8 415.386 12.02 412.636C16.46 402.606 17 401.326 17 400.826C17 400.546 19.02 395.986 21.5 390.686C23.98 385.396 26 380.866 26 380.626C26 380.386 27.06 377.816 28.36 374.916C29.66 372.016 32.39 365.586 34.42 360.636C40.87 344.996 40.93 344.916 46.52 343.466C54.91 341.296 58.8 341.706 61.99 345.126C63.52 346.766 65.08 349.306 65.44 350.766C65.81 352.226 67.59 356.626 69.4 360.536C71.22 364.436 73.29 369.216 74.01 371.136C74.73 373.056 75.7 375.066 76.16 375.586C76.62 376.106 77 377.126 77 377.846C77 378.566 78.62 382.646 80.6 386.896C82.57 391.156 84.56 395.536 85.01 396.636C85.47 397.736 86.94 401.116 88.3 404.136C93.48 415.696 94 416.966 94 417.936C94 418.486 95.27 421.356 96.83 424.316C101.11 432.456 104.64 442.906 103.48 444.036C102.03 445.456 98.43 445.806 89.53 445.406ZM60.57 401.816C61.2 400.166 52.54 377.816 51.07 377.326C50.48 377.126 49.74 377.796 49.41 378.806C49.08 379.816 48.44 381.536 47.97 382.636C45.13 389.366 41.88 400.386 42.37 401.646C43.14 403.676 59.8 403.826 60.57 401.816ZM186.78 445.436C182.37 444.946 179.51 441.816 177.94 435.756C177.35 433.486 176.05 429.156 175.05 426.136C174.06 423.116 172.47 417.936 171.52 414.636C170.58 411.336 169 406.156 168.02 403.136C167.04 400.116 165.47 394.936 164.52 391.636C161.9 382.486 160.66 379.136 159.92 379.136C159.16 379.136 157.98 382.056 155.47 390.136C154.53 393.156 153.36 396.416 152.88 397.376C152.4 398.326 152 399.926 152 400.926C152 401.916 151.63 403.166 151.17 403.686C150.71 404.206 149.55 407.556 148.58 411.136C147.61 414.716 145.28 422.586 143.39 428.636C141.51 434.686 139.98 440.126 139.98 440.736C140.03 443.686 136.29 445.136 128.63 445.136C117.73 445.136 116.78 443.926 110.87 422.636C110.26 420.436 109.14 416.646 108.38 414.206C107.62 411.776 107 408.826 107 407.656C107 406.486 106.63 405.106 106.17 404.586C105.72 404.066 104.76 401.616 104.04 399.136C103.33 396.656 102.17 392.836 101.46 390.636C100.76 388.436 98.56 381.236 96.57 374.636C94.57 368.036 92.06 359.876 90.97 356.506C88.43 348.596 88.42 344.516 90.93 343.176C93.73 341.676 111.25 341.846 113.19 343.386C114.62 344.516 116.6 352.066 119.05 365.636C119.54 368.386 120.67 373.336 121.55 376.636C124.01 385.876 125.02 390.166 126.09 396.046C127.73 405.036 129.03 405.476 131.42 397.886C132.33 394.996 133.45 391.736 133.9 390.636C134.35 389.536 135.54 385.936 136.54 382.636C137.55 379.336 138.65 376.186 139 375.636C139.68 374.576 140.21 372.836 145.01 356.136C148.8 342.906 149.63 342.136 160.03 342.136C164.32 342.136 168.57 342.416 169.46 342.756C171.31 343.466 174.99 350.156 175.01 352.846C175.03 355.056 178.34 365.816 179.3 366.766C179.68 367.156 180 368.876 180 370.606C180 372.326 180.36 374.166 180.8 374.686C181.63 375.676 183.91 382.476 185.98 390.136C186.65 392.616 187.6 395.416 188.1 396.376C188.59 397.326 189 398.926 189 399.936C189 402.316 191.51 405.736 192.31 404.446C192.65 403.896 193.37 401.016 193.91 398.046C195.02 391.956 196.1 387.376 198.49 378.636C199.39 375.336 200.51 370.836 200.99 368.636C201.46 366.436 202.37 362.836 203 360.636C203.63 358.436 204.62 354.496 205.2 351.886C205.79 349.276 207.31 346.016 208.58 344.636C210.72 342.336 211.6 342.136 219.75 342.136C232.15 342.136 232.74 343.026 228.62 355.456C227.32 359.406 225.66 365.116 224.94 368.136C224.22 371.156 223.27 374.066 222.82 374.586C222.37 375.106 222 376.716 222 378.166C222 379.616 221.66 381.136 221.25 381.556C220.84 381.966 219.97 384.406 219.33 386.966C217.73 393.306 216.56 397.376 213.96 405.636C212.75 409.486 211.25 414.886 210.63 417.636C210 420.386 209.24 423.086 208.92 423.636C208.31 424.706 206.85 429.746 204.95 437.336C204.3 439.916 203.03 442.686 202.13 443.476C200.32 445.086 192.5 446.076 186.78 445.436ZM334.5 445.446C331.75 445.266 328.49 444.886 327.25 444.606L325 444.096V394.776C325 348.086 325.1 345.356 326.85 343.776C328.44 342.336 331.12 342.126 346.6 342.276C378.87 342.576 389.32 347.766 393.44 365.526C395.08 372.606 394.57 377.176 391.19 385.456C389.44 389.756 380.73 398.136 378.01 398.136C377.04 398.136 375.72 398.766 375.09 399.536C373.73 401.166 375.57 404.786 385.64 420.346C389.14 425.756 392 430.446 392 430.776C392 431.106 393.58 433.516 395.5 436.136C398.91 440.786 399.8 443.526 398.22 444.506C397.78 444.766 392.34 445.136 386.12 445.316L374.81 445.636L372.39 442.636C371.05 440.986 368.23 436.256 366.12 432.136C364 428.016 360.84 422.156 359.08 419.136C357.33 416.116 355.64 412.846 355.33 411.886C355.02 410.926 354.37 410.136 353.88 410.136C353.4 410.136 353 409.506 353 408.746C353 407.986 352.17 406.326 351.15 405.066L349.29 402.776L348.59 406.516C348.2 408.576 348.2 417.836 348.58 427.086C349.27 443.456 349.23 443.946 347.21 445.026C346.07 445.636 343.86 446.056 342.32 445.956C340.77 445.856 337.25 445.626 334.5 445.446ZM364.25 384.096C368.79 382.816 371 379.126 371 372.816C371 364.896 364.91 360.646 354.5 361.316L349.5 361.636L349.21 372.576C349.06 378.586 349.18 384.156 349.48 384.956C350.09 386.536 356.96 386.136 364.25 384.096ZM216.68 443.736C216.09 442.206 216.84 438.246 218.02 436.636C218.43 436.086 219.09 434.516 219.51 433.136C219.92 431.756 221.72 427.486 223.51 423.636C227.41 415.206 228.97 411.656 232.51 403.136C233.99 399.556 236.56 393.716 238.2 390.136C239.85 386.556 241.54 382.736 241.96 381.636C242.38 380.536 243.87 376.936 245.28 373.636C249.68 363.286 250.71 360.846 254 352.856C257.72 343.836 259.98 342.136 268.2 342.136C273.55 342.146 280 344.896 280 347.176C280 347.766 281.84 352.166 284.09 356.946C286.34 361.726 288.53 366.536 288.96 367.636C289.39 368.736 290.68 371.656 291.81 374.136C296.29 383.876 299 390.236 299 390.976C299 391.406 299.85 393.536 300.88 395.696C304.57 403.416 306.96 408.946 309.11 414.756C310.3 417.986 312.03 421.756 312.95 423.136C313.86 424.516 315.43 427.656 316.43 430.136C317.43 432.616 319.14 436.506 320.23 438.796C321.33 441.086 321.92 443.456 321.55 444.046C321.13 444.736 316.32 445.136 308.46 445.136C294.05 445.136 294.91 445.706 290.56 433.176C289.14 429.066 287.51 425.246 286.96 424.696C286.32 424.056 279.13 423.786 267.72 423.976C252.77 424.216 249.29 424.546 248.32 425.796C247.67 426.646 246.16 430.556 244.98 434.486C241.77 445.106 241.72 445.136 228.45 445.136C219.73 445.136 217.09 444.826 216.68 443.736ZM276.55 399.536C276.18 397.556 275.16 394.296 274.3 392.286C273.43 390.276 272.37 387.736 271.95 386.636C268.21 377.026 267.3 376.226 265.32 380.886C262.11 388.476 258.74 400.006 259.3 401.476C259.83 402.846 261.45 403.136 268.58 403.136H277.22L276.55 399.536ZM411.28 443.976C410.66 443.226 410.09 439.246 410.01 435.126C409.61 414.706 410.02 347.896 410.56 345.736C410.9 344.386 411.7 343.086 412.34 342.846C412.98 342.616 423.85 342.766 436.5 343.176C462.39 344.026 469.23 345.266 477.4 350.586C487.54 357.176 495.8 368.436 498.11 378.826C501.01 391.886 500.15 405.876 495.78 416.636C491.28 427.726 479 438.836 467 442.676C459.55 445.066 413.08 446.146 411.28 443.976ZM454 424.086C467.23 421.986 473.13 415.386 475.01 400.576C477.34 382.196 471.13 368.626 458.7 364.946C456.39 364.256 450 363.686 444.5 363.666L434.5 363.636L434.23 393.016C434.05 413.856 434.3 422.796 435.11 423.766C436.48 425.416 444.73 425.566 454 424.086ZM199 333.246C189.85 331.206 183.02 325.876 178.59 317.316C175.84 311.996 176.77 309.016 182 306.406C184.48 305.166 187.09 304.156 187.82 304.146C188.54 304.136 191.7 306.836 194.84 310.136L200.55 316.136H208.73C216.82 316.136 216.94 316.096 220.45 312.486C223.56 309.286 224 308.206 224 303.826C224 296.216 221.17 293.246 207.57 286.606C192.95 279.466 185.76 274.276 182.27 268.346C179.86 264.246 179.5 262.586 179.5 255.556C179.5 248.526 179.89 246.706 182.5 241.646C186.13 234.586 194.03 228.896 202.65 227.106C209.46 225.686 221.59 227.116 227.61 230.046C234.49 233.396 240.54 241.826 238.47 245.186C238.08 245.816 235.49 247.396 232.71 248.676C228.26 250.746 227.37 250.856 225.08 249.676C223.66 248.946 221.65 247.416 220.63 246.276C217.52 242.846 212.61 241.736 207.38 243.276C199.83 245.506 197.1 249.526 198.4 256.466C199.26 261.056 202.98 264.266 214.02 269.946C237.96 282.266 243 287.966 243 302.766C243 308.626 240.57 317.096 237.57 321.666C235.32 325.106 229.79 329.026 224.22 331.146C218.72 333.236 204.33 334.436 199 333.246ZM293.5 333.186C271.55 329.556 253.68 312.336 249.04 290.346C247.34 282.326 248.2 270.496 251.09 262.006C255.06 250.326 267.31 237.226 279.49 231.626C302.46 221.076 329.67 227.626 345.56 247.536C347.73 250.246 349.91 253.156 350.4 253.986C352.7 257.846 355.12 266.396 356.19 274.396C357.65 285.336 356.32 293.376 351.25 304.136C345.61 316.116 331.54 328.296 320.5 330.746C318.85 331.116 317.01 331.796 316.42 332.256C314.82 333.506 299.25 334.136 293.5 333.186ZM317.41 313.176C325.25 309.436 330.3 304.546 333.47 297.606C340.1 283.126 339.21 269.846 330.8 257.416C319.95 241.386 292.1 239.436 277.61 253.676C271.97 259.226 267.65 269.046 267.16 277.436C266.25 293.196 273.57 306.026 287.5 313.076C292.83 315.776 294.49 316.116 302.36 316.126C310.12 316.136 311.98 315.776 317.41 313.176ZM438.24 331.026C436.47 330.376 430.43 322.096 418 303.296C399.09 274.696 387.69 258.136 386.89 258.136C386.39 258.136 386 273.436 386 293.436C386 319.556 385.69 329.046 384.8 329.936C384.1 330.636 380.76 331.136 376.84 331.136C370.88 331.136 369.93 330.876 368.89 328.926C367.38 326.106 367.59 232.766 369.11 229.926C369.98 228.296 371.1 228.126 378.3 228.486C382.81 228.706 387.27 229.216 388.22 229.616C389.7 230.226 396.73 239.956 403.5 250.756C404.6 252.516 409.55 259.846 414.5 267.056C419.45 274.266 424.4 281.636 425.5 283.436C429.64 290.206 438.28 302.136 439.04 302.136C439.48 302.136 439.76 286.236 439.67 266.796C439.53 238.116 439.76 231.136 440.87 229.796C441.89 228.566 443.9 228.136 448.57 228.136C458.64 228.136 458 224.586 458 280.736C458 321.896 457.79 329.066 456.53 330.116C454.94 331.426 441.19 332.116 438.24 331.026ZM15.25 330.026C13.43 328.146 13.47 234.746 15.29 231.136L16.56 228.636L36.03 228.326C54.52 228.036 63.73 228.856 68.24 231.226C69.19 231.726 70.67 232.136 71.53 232.136C77.72 232.136 94.56 247.456 96.9 255.226C97.63 257.656 98.62 260.756 99.09 262.136C103.43 274.746 101.8 297.106 95.7 308.696C93.24 313.366 81.93 323.776 77 325.906C74.53 326.976 71.15 328.446 69.5 329.176C65.14 331.086 17.02 331.846 15.25 330.026ZM62.97 312.556C66.94 311.376 69.64 309.626 73.58 305.686C80.68 298.586 82.29 293.146 81.83 277.836C81.54 268.086 81.15 265.906 78.77 260.996C75.99 255.246 72.24 251.356 66.63 248.426C63.44 246.756 43.52 245.126 36.42 245.956L33 246.356V280.246V314.136H45.32C53.64 314.136 59.37 313.626 62.97 312.556ZM127.65 329.306C126.22 327.726 126 324.546 126 305.446V283.416L116.57 268.026C111.38 259.566 104.52 248.586 101.32 243.636C94.03 232.336 93.72 231.566 95.61 229.666C97.42 227.866 106.67 227.576 110.25 229.206C111.54 229.796 115.43 234.816 118.95 240.456C122.45 246.056 126.02 251.756 126.88 253.136C129.4 257.136 131.82 261.396 133.59 264.886C134.49 266.676 135.55 268.136 135.95 268.136C136.59 268.136 145 255.746 145 254.816C145 254.046 157.97 234.456 160.51 231.386C162.77 228.646 163.87 228.136 167.45 228.136C172.65 228.136 178 229.886 178 231.596C178 232.286 176.88 234.506 175.51 236.526C174.14 238.536 172.28 241.646 171.36 243.416C170.45 245.186 168.27 248.436 166.52 250.636C164.76 252.836 161.2 258.236 158.59 262.636C155.98 267.036 151.86 273.776 149.42 277.606L145 284.586V306.656C145 322.496 144.66 329.076 143.8 329.936C143.11 330.626 139.79 331.136 135.95 331.136C130.79 331.136 128.94 330.726 127.65 329.306ZM18.7 220.086C16.06 219.646 12.01 218.316 9.7 217.126C5.4 214.906 0 210.376 0 208.986C0 207.526 6.2 201.136 7.62 201.136C8.4 201.136 11.48 202.516 14.46 204.206C21.2 208.006 25.37 207.886 28.4 203.806C30.46 201.026 30.5 200.286 30.23 159.306C30.03 126.586 30.25 117.286 31.25 116.016C31.96 115.116 34.86 114.066 37.69 113.676C42.3 113.046 42.96 113.196 43.97 115.076C44.77 116.576 45.01 129.696 44.8 160.416C44.48 206.156 44.57 205.266 39.64 212.506C37.89 215.096 30.8 219.026 25.5 220.376C24.4 220.646 21.34 220.516 18.7 220.086ZM47.11 217.496C44.64 215.766 44.5 214.486 46.39 210.536C47.16 208.946 48.58 205.836 49.55 203.636C50.52 201.436 52.87 196.256 54.77 192.136C60.32 180.076 61.45 177.476 68.51 160.636C72.2 151.836 76.29 142.346 77.61 139.536C78.92 136.736 80 134.156 80 133.816C80 133.476 81.07 130.816 82.38 127.916C83.69 125.016 85.07 121.636 85.44 120.416C86.46 117.076 90.8 114.136 94.71 114.136C98.77 114.136 103.5 118.256 104.6 122.756C104.99 124.336 107.3 129.906 109.73 135.136C112.16 140.366 115.95 149.136 118.14 154.636C120.34 160.136 123.01 166.366 124.07 168.476C125.13 170.596 126 172.716 126 173.206C126 173.686 128.02 178.356 130.5 183.586C132.98 188.806 135 193.366 135 193.706C135 194.046 136.5 197.546 138.33 201.486C145.3 216.436 145.31 216.666 138.73 217.656C131.6 218.716 129.4 217.186 125.48 208.396C123.57 204.126 120.99 198.616 119.75 196.136L117.5 191.636L96 191.356C84.18 191.196 73.6 191.296 72.5 191.566C70.5 192.056 69.3 194.126 66.64 201.706C64.29 208.426 60.12 216.006 58.25 216.956C54.75 218.756 49.27 219.016 47.11 217.496ZM111.57 176.816C112.05 175.556 110.89 172.366 106.23 162.136C104.4 158.116 102.26 152.926 98.62 143.636C96.78 138.966 95.02 136.136 93.94 136.136C93.4 136.136 92.56 137.146 92.08 138.386C91.6 139.626 89.59 144.386 87.6 148.966C85.62 153.556 84 158.076 84 159.016C84 159.966 83.6 161.166 83.11 161.686C81.69 163.186 77.05 176.856 77.73 177.526C78.06 177.866 85.7 178.136 94.7 178.136C107.36 178.136 111.18 177.836 111.57 176.816ZM337.5 217.426C335.3 216.536 331.73 214.646 329.56 213.226C325.37 210.476 319.01 201.036 319 197.556C319 194.646 323.06 191.166 327.24 190.486C330.72 189.916 330.82 190.006 334.14 196.206C338.23 203.866 341.32 206.266 347.87 206.896C355.98 207.676 359.68 206.506 364.59 201.596C368.79 197.396 369 196.916 368.98 191.416C368.95 183.636 366.27 177.966 361.1 174.696C358.86 173.286 356.8 172.136 356.52 172.136C354.37 172.136 334.03 161.036 330.52 157.946C323.51 151.776 321.94 148.476 321.89 139.856C321.83 127.906 326.09 120.756 336.5 115.366C340.95 113.066 342.62 112.786 351.7 112.836C360.81 112.886 362.37 113.166 366.31 115.476C374.31 120.156 378.73 126.966 376.23 130.746C375.83 131.356 374.03 132.606 372.24 133.526C368.57 135.406 366.99 134.916 363 130.636C356.56 123.746 342.85 123.136 338.64 129.566C336.18 133.326 335.67 139.586 337.54 143.296C339.68 147.556 342.17 149.616 349 152.776C361.52 158.566 371.31 163.796 374.49 166.406C376.35 167.936 379.1 171.756 380.6 174.906C382.92 179.776 383.31 181.856 383.23 188.796C383.07 202.196 378.09 210.506 366.6 216.556C362.25 218.846 360.58 219.126 351.6 219.086C344.75 219.046 340.21 218.516 337.5 217.426ZM152.53 217.266C149.31 216.576 146.7 212.746 147.56 209.976C147.84 209.066 148.2 187.796 148.34 162.726C148.53 129.846 148.93 116.806 149.76 115.976C150.4 115.336 153.71 114.436 157.12 113.966C165.09 112.876 166.62 113.896 170.38 122.806C171.97 126.566 173.83 130.986 174.53 132.636C175.22 134.286 176.79 138.116 178.01 141.136C179.24 144.156 181.31 149.006 182.62 151.916C183.93 154.816 185 157.766 185 158.466C185 159.166 185.39 160.166 185.87 160.686C186.36 161.206 188.2 165.456 189.97 170.136C195.18 183.866 197.82 189.146 199.23 188.586C199.93 188.306 203.38 181.006 206.9 172.356C210.42 163.716 214.59 153.816 216.15 150.356C217.72 146.906 219 143.826 219 143.516C219 143.196 219.72 141.296 220.6 139.286C222.32 135.366 223.08 133.536 225.17 128.266C225.9 126.416 227.62 122.596 229 119.776L231.5 114.646L239.38 114.586C244.55 114.556 247.7 114.976 248.54 115.826C249.56 116.836 249.86 127.526 249.95 166.046L250.07 214.976L247.81 216.556C245.01 218.516 240.01 218.596 237.44 216.716C235.58 215.346 235.51 213.986 235.8 182.066C236.11 147.246 235.8 142.226 233.47 144.156C232.73 144.776 231.82 146.686 231.44 148.426C231.06 150.156 230.39 152.256 229.95 153.106C228.62 155.696 225 164.086 225 164.596C225 164.866 223.91 167.456 222.58 170.356C219.12 177.916 212.33 194.206 209.42 201.936C205.85 211.436 202.84 217.116 201.32 217.256C196.33 217.736 194.48 216.756 192.94 212.816C192.26 211.066 191.1 208.286 190.37 206.636C189.63 204.986 187.28 199.366 185.14 194.136C183 188.906 180.22 182.156 178.98 179.136C177.73 176.116 176.37 172.736 175.96 171.636C175.54 170.536 174.32 167.616 173.25 165.136C172.18 162.656 169.6 156.476 167.51 151.386C165.42 146.296 163.26 142.136 162.71 142.136C162.04 142.136 161.88 154.306 162.24 178.246C162.76 212.716 162.7 214.436 160.89 216.246C158.94 218.196 157.63 218.356 152.53 217.266ZM266 217.306C264.08 217.126 261.94 216.506 261.25 215.936C260.28 215.126 260 203.996 260 166.086C260 123.046 260.19 117.096 261.57 115.706C263.91 113.376 310.45 113.356 313.78 115.696C316.74 117.766 316.99 125.536 314.14 127.066C313 127.666 305.19 127.886 294.17 127.606C277.08 127.186 276 127.276 275.03 129.086C273.69 131.586 273.69 150.696 275.04 153.206C276 155.016 277.31 155.136 295.43 155.136C312.16 155.136 314.87 155.346 315.39 156.716C316.32 159.126 316.12 163.046 314.96 165.206C314 167.006 312.69 167.136 295 167.136C277.31 167.136 276 167.266 275.04 169.066C274.46 170.146 274 177.466 274 185.636C274 193.806 274.46 201.126 275.04 202.206C276 204.006 277.31 204.136 294.84 204.136C308.1 204.136 313.95 204.486 314.8 205.336C316.39 206.926 316.33 213.296 314.71 215.516C313.56 217.096 311.15 217.296 291.46 217.456C279.38 217.556 267.93 217.486 266 217.306ZM31.62 102.266C30.06 100.546 29.96 96.7656 30.39 56.9656C30.65 33.0756 30.55 13.0256 30.17 12.4156C29.75 11.7356 24.66 11.1856 16.79 10.9756C9.24 10.7756 3.64 10.1856 2.98 9.52563C2.24 8.77563 2.16 7.27563 2.75 5.02563L3.62 1.63563L35.56 1.11563C53.53 0.825632 68.05 0.995632 68.75 1.49563C70.34 2.62563 70.38 8.35563 68.8 9.93563C67.99 10.7456 63.42 11.1356 54.8 11.1356H42V56.4356C42 90.3356 41.7 102.036 40.8 102.936C38.96 104.776 33.53 104.386 31.62 102.266ZM80.5 103.416C79.4 103.146 77.71 102.236 76.75 101.376C75.13 99.9356 75 96.2656 75 51.5556C75 8.99563 75.19 3.09563 76.57 1.70563C78.21 0.0756323 83.62 -0.394368 85.69 0.925632C86.53 1.45563 86.98 7.46563 87.19 21.1556L87.5 40.6356L112.73 40.9056L137.95 41.1656L138.46 38.9056C138.74 37.6556 139.09 28.8556 139.24 19.3456C139.53 0.41563 139.6 0.175632 145.63 0.155632C147.35 0.145632 149.26 0.745632 149.88 1.49563C151.37 3.28563 152.47 98.3856 151.04 101.066C149.73 103.506 144.13 104.336 141.25 102.516C139.02 101.106 139 100.886 139 77.3156C139 60.1556 138.67 53.2056 137.8 52.3356C136.94 51.4756 130.1 51.1356 113.37 51.1356C93.42 51.1356 89.92 51.3656 88.54 52.7356C87.16 54.1156 86.96 57.5256 87.08 77.9156C87.2 99.5556 87.06 101.616 85.41 102.826C84.43 103.546 83.37 104.086 83.06 104.016C82.75 103.956 81.6 103.686 80.5 103.416ZM171.33 103.136C167.39 102.856 163.9 102.376 163.58 102.056C162.45 100.916 162.88 2.85563 164.02 1.71563C164.69 1.04563 171.4 0.565632 181.8 0.435632C190.98 0.335632 201.21 0.155632 204.51 0.0456324C212.38 -0.214368 214.52 0.565632 216.04 4.23563C217.17 6.94563 217.07 7.50563 215.2 9.38563C213.21 11.3656 212.02 11.4956 194.29 11.5656L175.5 11.6356L175.22 25.3356L174.94 39.0356L178.65 39.7256C180.69 40.1156 188.86 40.1656 196.79 39.8456C211.03 39.2656 211.24 39.2856 213.61 41.6556C216.84 44.8756 216.82 49.4356 213.59 50.9156C212.03 51.6256 205.25 51.8856 194.47 51.6556C185.28 51.4556 177.14 51.5256 176.38 51.8156C175.27 52.2456 175 56.2556 175 72.2456V92.1356H193.85C210.83 92.1356 212.85 92.3156 214.35 93.9656C216.76 96.6256 216.46 100.816 213.75 102.316C211.4 103.626 185.48 104.126 171.33 103.136Z" fill="#71767D"/>
</svg>
