<svg width="1222" height="200" viewBox="0 0 1222 200" fill="none" xmlns="http://www.w3.org/2000/svg">
<path d="M523.141 73.7607V168.389L491.529 200H427.479L417.355 189.876V178.719L427.893 168.182H485.785L488.141 165.785C489.421 164.464 490.494 163.267 490.496 163.1C490.496 162.893 489.546 161.736 488.389 160.496L486.24 158.265H448.967L417.355 126.653V73.7607L433.141 57.9756L448.967 42.1484H491.529L523.141 73.7607ZM105.372 10.5371V147.728L94.835 158.265H31.6113L0 126.653V73.5537L15.8262 57.8516L31.6113 42.1904L52.6035 42.1494H73.5537V10.5371L84.0908 0H94.835L105.372 10.5371ZM394.836 42.5625L405.373 53.0996V147.728L394.836 158.265H384.092L373.555 147.728V74.3799H363.018L352.48 63.8428V53.0996L363.018 42.5625H394.836ZM340.497 52.2734V63.1406L335.249 68.3477L329.96 73.5537H272.067L269.505 76.1572L266.902 78.8018L269.629 81.3223L272.356 83.8848H329.96L340.497 94.4219V126.24L308.886 157.852H245.662L235.125 147.314V136.57L245.662 126.033H303.555L305.993 123.554L308.472 121.074L305.993 118.596L303.472 116.116L245.249 115.62L240.208 110.579L235.125 105.579V73.3477L250.745 57.7686L266.323 42.1494L275.414 42.0254C280.414 41.9841 294.712 41.901 307.232 41.8184L329.96 41.7363L340.497 52.2734ZM577.48 41.4883L609.299 41.7773L625.125 57.5625L640.91 73.3477V147.314L630.373 157.852H619.216L608.679 147.314V84.0908L598.142 73.5537H577.356L572.149 79.0088L566.943 84.5049V147.314L556.406 157.852H545.662L535.125 147.314V51.8594L540.414 46.5703L545.662 41.2402L577.48 41.4883ZM685.126 10.5371V41.6943L726.861 41.9424L758.68 73.7607V126.24L727.068 157.852H663.556L658.226 152.769L652.936 147.728L652.895 79.1328V10.5371L658.143 5.29004L663.432 0H674.589L685.126 10.5371ZM876.858 73.7607V126.777L845.123 157.852H801.982L770.66 126.694V73.7607L802.271 42.1494H845.247L876.858 73.7607ZM995.042 73.7607V126.777L979.257 142.314L963.431 157.852H920.373L904.629 142.314L888.844 126.777V73.7607L920.455 42.1494H963.431L995.042 73.7607ZM1081.28 41.6123L1089.05 49.5459L1096.86 57.4795L1113.02 41.3223H1154.75L1186.78 73.3477V147.314L1176.24 157.852H1165.08L1154.54 147.314V84.0908L1144.01 73.5537H1123.35L1112.81 84.0908V147.728L1102.68 157.852H1091.53L1080.99 147.314V84.0908L1070.45 73.5537H1049.79L1039.25 84.0908V147.314L1028.72 157.852H1017.56L1007.02 147.314V52.0254L1012.31 46.6123L1017.56 41.1982L1081.28 41.6123ZM223.141 73.3477V105.165L212.604 115.702H154.463L151.942 118.182L149.38 120.62L151.859 123.141L154.298 125.62H183.265L212.19 125.661L217.687 130.992L223.141 136.364V146.901L217.852 152.19L212.521 157.479L180.744 157.438H148.967L133.182 141.611L117.355 125.826V73.3477L133.182 57.5625L148.967 41.7773L153.513 41.6113C156.034 41.57 165.496 41.4466 174.587 41.4053L191.116 41.3223L223.141 73.3477ZM802.892 79.1738V121.322L808.099 126.446H839.503L844.627 121.24V79.5049L841.817 76.7363L839.007 73.9668H808.016L802.892 79.1738ZM921.075 79.1738V121.322L926.282 126.446H957.687L962.811 121.24V79.0908L960.207 76.5293L957.604 73.9668H926.199L921.075 79.1738ZM31.8184 79.1738V120.909L37.0244 126.033H68.4297L73.5537 120.826V79.5039L70.7441 76.7354L67.9336 73.9668H36.9424L31.8184 79.1738ZM449.587 79.1738V121.322L454.38 126.033H485.785L490.909 120.826V79.0908L488.306 76.5293L485.702 73.9668H454.711L449.587 79.1738ZM685.126 78.7607V120.909L690.333 126.033H721.324L726.448 120.827V79.0908L723.845 76.5293L721.241 73.9668H689.837L685.126 78.7607ZM149.422 78.5127L154.298 83.4717H185.785L188.389 80.8262L190.95 78.2236L188.306 75.8682L185.661 73.5537H154.298L149.422 78.5127ZM1195.87 13.0576C1198.84 12.2726 1203.26 12.2728 1206.53 13.0166C1213.39 14.6283 1219.05 19.876 1221.11 26.4873C1222.23 30.041 1222.19 35.9501 1221.03 39.3799C1218.26 47.6443 1210.25 53.3057 1201.24 53.3057C1195.7 53.3055 1189.42 50.6192 1185.78 46.6523C1180.08 40.4954 1178.72 31.5703 1182.27 24.0498C1184.75 18.8432 1190 14.6279 1195.87 13.0576ZM1201.9 17.0664C1195.16 16.7773 1190.33 19.8348 1187.27 26.3223C1186.28 28.4296 1186.16 29.2153 1186.16 32.8516C1186.16 36.6941 1186.24 37.1901 1187.52 39.752C1190.25 45.3305 1195.2 48.4707 1201.44 48.4707C1205.91 48.512 1209.05 47.1482 1212.15 43.7598C1219.46 35.8672 1217.19 23.0168 1207.68 18.3887C1205.74 17.4383 1204.54 17.1904 1201.9 17.0664ZM1194.75 22.6035C1195.46 22.4796 1198.31 22.4382 1201.04 22.4795C1204.84 22.5208 1206.28 22.7275 1207.32 23.2646C1211.16 25.3308 1211.24 30.8681 1207.48 32.7275C1206.28 33.2647 1206.24 33.3891 1206.99 33.5957C1208.18 33.885 1209.34 36.0331 1210.04 39.2148C1210.42 40.7024 1210.83 42.2733 1210.99 42.6865C1211.24 43.3474 1211.03 43.4296 1208.43 43.3057L1205.62 43.1816L1204.67 40.083C1203.56 36.4056 1202.69 35.5372 1200.17 35.5371H1198.35V43.3887H1193.39V22.7686L1194.75 22.6035ZM405.373 10.9502V21.6943L394.836 32.2314H384.092L373.555 21.6943V10.9502L384.092 0.413086H394.836L405.373 10.9502ZM1202.85 26.4883C1201.41 25.9925 1199.05 25.868 1198.64 26.3223C1198.47 26.4462 1198.35 27.7687 1198.35 29.2148C1198.35 31.7765 1198.35 31.8183 1199.51 31.8184C1201.49 31.8184 1203.72 30.9917 1204.34 30C1205.25 28.6364 1204.59 27.1082 1202.85 26.4883Z" fill="#71767D"/>
</svg>
