<svg width="571" height="200" viewBox="0 0 571 200" fill="none" xmlns="http://www.w3.org/2000/svg">
<path d="M26.1782 188.63C7.06464 170.544 -1.35232 154.01 0.175756 137.552C3.65777 99.8763 41.8848 43.7382 82.3915 16.8089L99.6512 5.33575L110.348 12.8008C124.501 22.6456 141.435 40.3814 144.517 48.5478C146.446 53.7333 145.744 57.6412 141.11 67.3357C131.891 86.5995 125.002 93.4634 113.204 95.0416C107.542 95.7931 102.231 95.3422 101.43 94.0145C100.603 92.6868 102.156 85.7979 104.862 78.6585C107.567 71.5442 109.772 63.4529 109.772 60.6472C109.772 56.1882 109.12 55.9377 104.16 58.5931C94.9918 63.503 60.8731 99.3753 49.6254 115.934C37.4759 133.795 28.7083 152.482 30.8376 155.914C35.021 162.678 83.0678 145.368 109.421 127.632C118.214 121.695 120.794 120.944 122.547 123.699C125.829 128.885 125.228 140.333 121.295 147.948C112.903 164.156 69.265 194.241 46.444 199.577C40.482 200.955 37.5511 199.377 26.1782 188.63ZM467.292 169.442C466.415 168.565 468.845 163.204 472.703 157.517C476.561 151.856 483.976 139.556 489.161 130.187L498.605 113.178L492.092 103.358L485.604 93.5636L494.948 90.9583C500.108 89.5305 505.77 88.3531 507.548 88.3531C510.68 88.328 525.61 58.4428 525.61 52.1802C525.61 48.9236 508.325 50.3765 485.228 55.562C479.266 56.8897 474.056 57.6412 473.655 57.2404C472.503 56.1131 478.314 30.0105 480.744 25.3761C483.625 19.8901 517.368 11.1224 539.312 10.1705L556.773 9.41898L563.686 21.9442C567.469 28.8331 570.6 36.724 570.65 39.5046C570.676 42.2852 566.417 53.2072 561.206 63.8036C551.938 82.5664 551.813 83.1927 556.121 88.829C562.434 96.9955 561.958 97.9474 550.034 101.004C541.291 103.258 538.11 105.838 532.248 115.458C517.143 140.233 499.056 163.429 493.044 165.709C484.026 169.166 469.146 171.32 467.292 169.442ZM294.694 161.751C287.58 153.66 279.614 135.298 279.338 126.455C279.163 119.416 280.967 116.084 289.008 108.694C294.444 103.684 301.708 97.6969 305.165 95.3923L311.428 91.1838L303.337 89.4553C291.212 86.85 288.557 82.3911 292.54 71.2436C297.75 56.6392 304.138 49.2994 319.043 40.9074C337.581 30.4363 357.245 22.846 358.924 25.5264C359.65 26.7038 358.498 35.4715 356.344 44.9656L352.461 62.2254L338.558 67.1353C330.917 69.8408 324.504 73.1725 324.304 74.5503C324.104 75.928 327.886 78.3329 332.721 79.886C345.647 84.0444 345.096 90.0816 330.466 103.909C316.764 116.81 310.551 125.904 315.411 125.904C319.77 125.904 347.801 111.299 357.421 104.035C364.26 98.8492 366.264 98.3232 368.142 101.154C375.382 112.051 354.139 138.705 324.905 155.388C306.468 165.934 299.654 167.362 294.694 161.751ZM141.886 154.086C124.827 136.25 123.449 126.781 134.421 102.607C142.763 84.1696 155.364 68.9139 163.129 67.8117C166.711 67.3107 168.415 65.507 168.014 62.6513C167.663 60.2464 167.112 56.4137 166.761 54.1341C165.96 48.9236 193.941 36.9495 216.712 32.766C231.342 30.0606 233.195 30.2359 239.383 34.8452C243.065 37.6008 248.551 44.4897 251.507 50.126L256.943 60.3466L262.404 52.9567C268.391 44.8654 287.329 30.2359 289.809 31.764C290.686 32.2901 290.837 41.5087 290.135 52.2052C288.958 70.4169 288.482 71.8197 282.62 73.3729C279.163 74.2997 271.848 77.3559 266.337 80.1616C256.542 85.1717 256.217 85.7729 251.532 107.467C244.543 139.882 244.869 139.381 226.432 147.222C217.338 151.08 209.222 153.534 208.37 152.683C207.519 151.831 208.02 146.871 209.498 141.661C219.092 107.717 227.359 75.2517 228.711 66.1834L230.29 55.587L220.745 59.6452C215.51 61.8998 209.823 64.3046 208.095 65.0311C204.062 66.6844 204.137 69.465 208.471 77.8319C223.15 106.214 210.099 133.619 171.145 156.19C164.256 160.173 156.867 163.454 154.737 163.454C152.608 163.479 146.821 159.246 141.886 154.086ZM180.088 116.685C182.618 110.047 178.66 81.89 174.878 79.5604C170.97 77.1305 158.169 120.368 160.799 127.206C162.152 130.713 163.029 130.688 169.943 127.131C174.176 124.952 178.736 120.242 180.088 116.685ZM367.792 162.277C367.792 161.626 371.574 155.138 376.209 147.873C380.843 140.608 387.531 128.96 391.064 121.996L397.451 109.295L391.114 101.179C387.607 96.7199 385.327 92.5115 386.028 91.81C386.73 91.1086 392.642 88.6286 399.18 86.2739C410.478 82.2408 411.405 81.1636 418.168 64.505C422.076 54.8856 425.283 45.667 425.333 44.0137C425.433 40.2311 412.857 42.1349 388.458 49.625C367.616 56.0379 368.268 56.7394 373.102 32.6408C375.357 21.4182 377.161 18.1365 382.496 15.7066C399.105 8.0913 420.924 2.7305 440.689 1.42788L462.232 0L467.618 11.1475C470.574 17.2598 473.004 24.324 473.004 26.8291C473.004 29.3341 467.918 42.1099 461.706 55.2363C451.51 76.7547 450.784 79.5102 454.191 83.2929C460.078 89.806 458.725 92.9624 449.231 94.7409C441.841 96.1438 439.01 98.7991 431.22 111.775C426.134 120.242 416.815 134.12 410.528 142.663C401.084 155.488 397.301 158.62 388.609 160.824C377.536 163.63 367.792 164.306 367.792 162.277Z" fill="#71767D"/>
</svg>
