<svg width="501" height="321" viewBox="0 0 501 321" fill="none" xmlns="http://www.w3.org/2000/svg">
<path d="M0 303.5C0 293.88 0.18 286 0.41 286C0.63 286 2.68 287.56 4.96 289.47C7.25 291.38 10.78 293.4 12.81 293.96C18.23 295.47 26.4 295.22 30.9 293.42C33.87 292.23 35.34 292.11 36.86 292.92C37.96 293.52 40.24 294 41.92 294C46 294 46.41 291.99 45.35 277.29L44.5 265.5H33.5H22.5V270.5V275.5L27 275.23C32.33 274.91 34.46 276.01 33.58 278.63C32.31 282.39 27.9 284.5 21.32 284.5C15.82 284.5 14.78 284.17 11.94 281.5C5.33 275.27 3.89 264.65 8.67 257.28C11.89 252.32 14.5 251 21.11 251C26.75 251 29.29 252.07 32.47 255.76C34.16 257.73 35.66 258.32 39.08 258.4C43.08 258.49 43.53 258.26 43.79 256C44.2 252.44 38.82 245.57 33.72 243.14C24.55 238.79 12.64 239.58 5.08 245.06C2.85 246.68 0.79 248 0.51 248C0.23 248 0 240.34 0 230.99V213.97L74.17 214.02C114.96 214.05 148.7 213.7 149.16 213.24C149.61 212.79 150.1 188.81 150.24 159.96L150.5 107.5L195.75 107.24L241 106.98V53.49V0H370.51H500.02L499.76 53.25L499.5 106.5L445.5 107L391.5 107.5L391 160L390.5 212.5L345.5 213.03C320.75 213.31 300.39 213.65 300.25 213.78C300.11 213.9 300 238.07 300 267.5V321H150H0V303.5ZM125.82 293.68C132.11 291.8 136.4 287.9 139.91 280.87C145.35 269.99 143.8 256.52 136.21 248.67C131.27 243.56 126.58 241.27 119.43 240.49C103.55 238.75 91.97 247.36 88.97 263.13C85.06 283.79 104.63 300.02 125.82 293.68ZM241.28 293.12C242.06 292.34 241.11 289.26 235.48 274.5C234.22 271.2 231.05 262.88 228.44 256C225.82 249.12 223.23 242.92 222.68 242.2C221.26 240.37 210.98 241.01 209.87 243C209.41 243.82 206.54 251.02 203.49 259C200.44 266.98 196.37 277.55 194.46 282.5C192.55 287.45 190.99 292.06 190.99 292.75C191 293.58 192.66 294 195.94 294C199.92 294 201.19 293.56 202.44 291.78C203.3 290.56 204 288.82 204 287.93C204 283.76 208.7 282.36 221.17 282.8L226.84 283L228.52 288.07C229.59 291.29 230.99 293.47 232.35 294.05C234.68 295.02 239.92 294.48 241.28 293.12ZM86.5 289V284.5L76 284L65.5 283.5L65 262.5L64.5 241.5L60.68 241.19C53.95 240.63 54 240.41 54 267.96C54 281.55 54.31 292.98 54.69 293.36C55.07 293.74 62.38 293.93 70.94 293.77L86.5 293.5V289ZM181.68 291.43C188.19 286.65 189.93 276.88 185.47 270.13C183.34 266.92 183.1 265.86 183.97 263.59C184.54 262.09 185 258.41 185 255.4C185 250.43 184.64 249.54 181.18 245.82L177.35 241.73L164.43 241.61L151.5 241.5L151 265.82C150.73 279.19 150.84 291.05 151.25 292.17C151.97 294.09 152.69 294.18 165.43 293.85C177.1 293.55 179.23 293.23 181.68 291.43ZM280.5 289V284.5L270.25 284.22L260 283.93L259.87 279.22C259.8 276.62 259.78 267.55 259.83 259.05C259.89 249.31 259.52 243.13 258.84 242.3C257.48 240.67 250.8 240.6 249.2 242.2C247.44 243.96 247.49 292.62 249.25 293.35C249.94 293.64 257.25 293.79 265.5 293.68L280.5 293.5V289ZM203.04 186.49C206.23 185.36 208.57 185.19 212.1 185.84C214.72 186.31 217.36 186.4 217.96 186.02C218.69 185.57 218.97 180.88 218.78 171.92L218.5 158.5H207H195.5V163V167.5L201 168C204.55 168.32 206.46 168.94 206.4 169.75C206.35 170.44 206.23 171.66 206.15 172.47C205.97 174.28 201.67 176.6 196.82 177.51C194.2 178 191.93 177.62 188.57 176.13C184.62 174.39 183.55 173.26 181.42 168.61C179.33 164.05 179.03 162.28 179.59 158.01C180.92 148.02 187.83 142.15 196.71 143.48C200.22 144 202.05 144.99 204.34 147.59C207.07 150.66 207.89 151 212.68 151C219.09 151 219.58 149.46 215.15 143.4C209.34 135.47 204.52 133.11 194 133.05C177.32 132.97 167.03 144.95 168.26 163.03C168.82 171.12 169.69 173.57 173.79 178.5C177.13 182.52 179.15 183.84 185.3 186.06C191.66 188.35 197.37 188.48 203.04 186.49ZM237.58 185.87C237.97 185.24 238.21 181.93 238.11 178.51C237.92 171.67 239.21 167 241.29 167C242.03 167 244.86 171.29 247.57 176.53C252.77 186.59 253.79 187.43 260.11 186.82C262.99 186.55 263.45 186.16 263.18 184.22C263.01 182.97 261.09 178.82 258.93 175C256.77 171.18 255 167.56 255 166.95C255 166.34 256.69 163.78 258.75 161.26C262.18 157.07 262.5 156.16 262.48 150.57C262.47 143.14 259.78 138.71 253.6 135.91C248.57 133.62 228.49 133.11 227.83 135.25C227.07 137.7 227.52 184.52 228.31 185.75C229.32 187.31 236.63 187.4 237.58 185.87ZM278.75 185.75C279.29 185.06 280.28 182.81 280.95 180.74C281.62 178.68 282.99 176.54 284.01 175.99C286.23 174.8 300.96 174.69 302.78 175.84C303.49 176.29 304.9 178.87 305.93 181.58C307.75 186.41 307.88 186.51 312.4 186.81C315.81 187.03 317.17 186.71 317.6 185.6C318.25 183.9 315.24 174.54 309.04 159C306.73 153.23 303.92 145.8 302.78 142.5C301.65 139.2 300.28 135.94 299.74 135.25C298.36 133.5 288.56 133.62 287.08 135.4C286.44 136.17 285.52 138.09 285.04 139.65C284.55 141.22 281.85 148.35 279.03 155.5C271.04 175.78 267.87 184.98 268.52 186.03C269.39 187.44 277.58 187.22 278.75 185.75ZM354.94 185.42C362.2 183.27 369.28 176.62 371.11 170.23C375.12 156.24 370.25 142.54 359.28 136.94C355.13 134.83 352.73 134.44 341.15 134C333.8 133.73 327.28 133.82 326.65 134.21C325.24 135.09 324.94 183.83 326.33 185.75C327.71 187.64 348.26 187.41 354.94 185.42ZM288.66 78.41C293.82 74.55 295.43 71.4 295.47 65.05C295.52 56.03 294.4 54.94 276 46.17C271.99 44.26 270.84 40.3 273.52 37.63C276.54 34.6 278.9 35.47 283.79 41.43C285.5 43.52 292.85 43.56 293.64 41.49C294.98 38.01 292.94 33.12 288.78 29.83C285.23 27.02 283.7 26.49 278.07 26.19C272.47 25.88 271 26.17 268.09 28.16C262.5 32 260.57 35.37 260.6 41.28C260.64 49.92 262.59 52.31 273.95 57.67C284.54 62.67 286.17 64.57 283.44 68.73C282.34 70.41 281 71 278.25 71C275.2 71 273.89 70.29 270.89 67C267.13 62.89 264.51 62.12 260.85 64.08C259.28 64.92 258.97 65.76 259.49 67.83C260.71 72.71 264.25 77.21 268.4 79.15C273.94 81.73 284.73 81.34 288.66 78.41ZM346.98 54.21C346.98 40.62 346.59 28.91 346.14 28.19C345.6 27.34 343.74 26.98 340.9 27.19L336.5 27.5L336.21 36.49C336.05 41.44 335.54 45.86 335.09 46.31C333.79 47.61 318.2 48.18 316.02 47.01C314.35 46.11 314.03 44.68 313.79 36.73L313.5 27.5H308.5H303.5V53.5V79.5H308.5H313.5L313.79 70.05C313.95 64.86 314.57 60.02 315.16 59.3C315.9 58.41 319.02 58 325 58C330.98 58 334.1 58.41 334.84 59.3C335.43 60.02 336.05 64.86 336.21 70.05L336.5 79.5L340 80.06C347.17 81.2 347 81.81 346.98 54.21ZM391.58 79.53C396.62 78.04 402.56 72.85 406.49 66.53C408.93 62.61 409.71 50.61 407.94 44.25C405.18 34.39 393.27 26 382 26C370.8 26 362 31.21 357.44 40.53C353.92 47.74 353.67 59.62 356.9 66.3C362.7 78.28 377.19 83.81 391.58 79.53ZM441.12 74C442.09 70.97 444.09 64.56 445.56 59.75C447.03 54.94 448.61 51 449.08 51C449.54 51 450.44 52.91 451.08 55.25C451.72 57.59 452.83 61.53 453.55 64C454.26 66.47 455.58 71.11 456.47 74.3L458.08 80.1L463.79 79.8C470.46 79.45 468.56 83.24 478.61 50.22C482.17 38.52 484.81 28.51 484.48 27.97C484.15 27.44 481.67 27 478.98 27H474.07L470.99 37.25C469.29 42.89 466.97 50.62 465.84 54.42C464.47 59.01 463.51 60.87 463 59.92C462.58 59.14 460.56 51.97 458.52 44C456.48 36.03 454.35 28.94 453.78 28.25C453.22 27.56 450.81 27 448.44 27H444.12L441.62 35.25C440.25 39.79 438.19 47.08 437.06 51.45C435.92 55.83 434.62 59.78 434.16 60.24C433.71 60.69 432.54 58.24 431.57 54.78C423.87 27.41 423.66 27 417.48 27C413.32 27 413 27.18 413 29.61C413 32.15 415.67 41.36 422.64 62.89C424.49 68.6 426 73.64 426 74.07C426 74.51 426.45 76.05 426.99 77.48C427.93 79.94 428.34 80.08 433.67 79.8L439.34 79.5L441.12 74ZM111.53 284.32C101.92 281.63 96.56 266.4 102.25 257.95C106.96 250.96 117.1 248.54 124.21 252.69C130.99 256.65 133.99 267.3 130.61 275.4C127.85 281.99 118.63 286.3 111.53 284.32ZM211.06 271.25C211.16 268.24 215.46 257.49 216.5 257.63C217.58 257.78 220.9 265.8 221.72 270.25C222.22 272.98 222.19 273 216.61 273C211.91 273 211.01 272.72 211.06 271.25ZM162.41 282.61C162.11 281.85 162.01 279.26 162.19 276.86L162.5 272.5L167.7 272.2C171.87 271.96 173.31 272.31 174.95 273.95C177.4 276.4 177.55 278.77 175.44 281.78C174.16 283.61 172.94 284 168.41 284C164.67 284 162.77 283.56 162.41 282.61ZM162.61 262.18C161.76 260.8 161.59 253.48 162.38 252.2C163.43 250.5 169.14 250.71 171.78 252.56C174.76 254.64 174.76 259.36 171.78 261.44C169.43 263.09 163.47 263.57 162.61 262.18ZM239.2 156.8C237.94 155.54 237.56 148.31 238.61 145.58C239.48 143.31 247.2 143.43 249.19 145.75C251.68 148.65 252.06 150.98 250.53 153.94C248.56 157.75 241.85 159.45 239.2 156.8ZM287.59 165.14C287.06 164.28 290.24 154.29 292.21 150.6C293.06 149.02 293.39 148.94 294.04 150.11C295.91 153.44 299.09 164.04 298.51 164.98C297.75 166.22 288.34 166.35 287.59 165.14ZM337.25 175.9C335.53 174.11 335.49 146.91 337.2 145.2C339.02 143.38 348.96 143.73 352.98 145.75C358.44 148.5 361 153.17 361 160.4C360.99 167.11 358.93 171.69 354.65 174.5C351.35 176.65 338.94 177.66 337.25 175.9ZM374.18 68.92C367.87 65.71 366.5 63.03 366.5 53.87C366.5 44.74 368.1 41.81 375.06 38.19C380.29 35.46 385.15 35.7 390.37 38.92C399.64 44.65 399.9 61.52 390.82 68.29C386.77 71.31 379.43 71.59 374.18 68.92Z" fill="#71767D"/>
</svg>
