<svg width="375" height="200" viewBox="0 0 375 200" fill="none" xmlns="http://www.w3.org/2000/svg">
<path d="M1.69576 198.693C0.761209 198.037 0 196.884 0 196.115C0 194.186 2.60017 192.897 4.46928 193.892C5.27571 194.322 6.79813 194.676 7.86081 194.676C11.0036 194.676 10.1444 192.618 6.17258 190.599C0.798893 187.878 -0.866724 185.014 0.715989 181.2C2.53234 176.821 10.6569 174.952 14.4253 178.05C17.1385 180.273 15.5784 182.24 11.0941 182.24C9.20988 182.24 7.41614 182.489 7.11467 182.791C6.27809 183.627 8.11706 185.428 10.3931 185.994C13.9203 186.868 15.8271 189.28 15.8271 192.86C15.8271 195.497 15.4277 196.387 13.5058 198C11.6442 199.567 10.4233 199.944 7.28802 199.914C5.027 199.891 2.67554 199.379 1.69576 198.693ZM19.6482 197.969C18.7514 196.824 18.0881 194.872 18.0881 193.372C18.0881 191.94 17.5003 189.77 16.7843 188.556C15.7216 186.762 15.6538 186.107 16.415 185.052C17.3571 183.733 17.8017 182.783 18.4424 180.733C18.6534 180.055 19.7085 179.602 21.0802 179.602C22.9569 179.602 23.3639 179.912 23.3639 181.321C23.3639 183.499 26.7629 184.991 29.2199 183.891C32.016 182.64 33.4178 184.516 32.9054 188.835C32.3929 193.154 32.8526 194.676 34.6689 194.676C36.3873 194.676 36.93 193.214 36.93 188.609C36.93 185.745 37.254 184.758 38.3846 184.155C40.0125 183.28 42.1831 183.838 42.2434 185.15C42.6202 193.297 42.5825 197.826 42.1378 198.557C41.8138 199.077 39.2287 199.567 36.0029 199.726C28.9712 200.065 27.7578 199.047 27.2754 192.385C26.9287 187.561 26.5519 187.124 24.6074 189.272C22.8137 191.262 23.0775 193.696 25.248 195.121C27.3734 196.515 27.7352 198.806 25.9414 199.492C23.4392 200.449 21.1707 199.899 19.6482 197.969ZM47.8582 199.032C45.2807 197.57 44.5119 195.95 44.4893 191.91C44.4667 188.541 44.7832 187.689 46.788 185.692C48.6797 183.8 49.7198 183.371 52.4405 183.371H55.7718V180.13C55.7718 178.351 56.1788 176.482 56.6762 175.985C58.0328 174.628 60.1431 174.892 61.0173 176.535C62.178 178.706 62.0423 198.067 60.8591 199.01C59.5477 200.05 49.6896 200.065 47.8582 199.032ZM54.6413 193.922C56.5104 191.857 55.1161 188.42 52.5611 188.782C50.6016 189.061 49.8027 192.558 51.2874 194.344C52.4858 195.784 53.0209 195.716 54.6413 193.922ZM67.4537 199.236C61.6203 196.854 61.349 188.006 67.0166 184.66C69.466 183.213 73.2344 182.979 75.4125 184.147C78.2388 185.662 80.3415 192.332 78.382 193.545C77.9599 193.802 77.8242 194.804 78.0654 195.769C78.8945 199.07 72.3074 201.225 67.4537 199.236ZM72.9028 194.224C72.6541 193.967 71.9984 193.945 71.4557 194.163C70.8528 194.405 71.0337 194.578 71.9154 194.616C72.7068 194.646 73.1515 194.472 72.9028 194.224ZM72.3526 188.647C72.3526 188.232 71.8627 187.893 71.2673 187.893C70.6719 187.893 69.971 188.232 69.7147 188.647C69.4585 189.061 69.9484 189.4 70.8 189.4C71.6517 189.4 72.3526 189.061 72.3526 188.647ZM81.1479 199.447C80.1908 198.49 80.5827 185.006 81.5851 184.381C82.1051 184.064 84.6601 183.718 87.2678 183.612C90.9306 183.469 92.2948 183.725 93.2971 184.727C94.5181 185.956 94.6764 185.918 96.2817 184.027C97.2162 182.926 97.9775 181.457 97.9775 180.763C97.9775 178.691 102.808 179.505 103.11 181.63C103.261 182.655 103.969 183.363 104.994 183.514C107.361 183.853 107.655 187.026 105.469 188.677C103.856 189.898 102.582 194.676 103.871 194.676C104.203 194.676 105.092 195.128 105.846 195.678C108.009 197.261 106.2 199.952 102.967 199.952C98.9949 199.952 97.465 197.351 97.2841 190.342C97.2539 188.993 96.8846 187.893 96.4701 187.893C96.033 187.893 95.7164 190.274 95.7164 193.53C95.7164 198.912 95.6335 199.19 93.8323 199.643C90.3503 200.517 89.6871 199.673 89.6871 194.367C89.6871 191.684 89.3856 189.302 89.0163 189.076C87.7727 188.307 86.5518 190.817 86.4086 194.45C86.3332 196.44 86.0016 198.49 85.67 199.01C85.0444 200.004 81.9996 200.298 81.1479 199.447ZM115.478 199.01C114.46 197.766 114.34 179.904 115.342 178.042C116.246 176.347 121.432 175.985 122.653 177.53C123.067 178.05 124.168 180.793 125.095 183.635C127.054 189.611 127.8 189.438 129.888 182.512C131.441 177.349 132.443 176.422 136.174 176.731C138.917 176.957 139.068 177.108 139.429 179.979C139.633 181.637 139.633 186.725 139.429 191.284C139.068 199.236 138.985 199.582 137.312 199.824C134.274 200.253 133.543 198.881 133.867 193.365C134.176 188.157 133.588 187.87 131.915 192.415C129.835 198.067 129.21 199.228 128.041 199.597C125.645 200.359 124.311 199.017 123.09 194.616C121.643 189.4 120.527 189.476 120.753 194.759C120.866 197.397 120.588 198.738 119.811 199.228C118.251 200.215 116.39 200.117 115.478 199.01ZM144.811 198.776C140.017 195.317 140.462 187.086 145.579 184.434C151.187 181.539 157.518 185.165 157.518 191.277C157.518 192.264 157.163 193.297 156.734 193.568C156.304 193.832 156.131 194.631 156.357 195.347C157.133 197.774 155.008 199.409 150.659 199.741C147.652 199.974 146.13 199.726 144.811 198.776ZM151.865 194.676C152.129 194.246 151.481 193.922 150.358 193.922C149.235 193.922 148.587 194.246 148.85 194.676C149.107 195.09 149.785 195.43 150.358 195.43C150.93 195.43 151.609 195.09 151.865 194.676ZM150.885 188.496C150.184 187.795 149.777 187.795 149.076 188.496C148.376 189.197 148.572 189.4 149.981 189.4C151.39 189.4 151.586 189.197 150.885 188.496ZM159.228 199.01C158.829 198.49 158.43 195.121 158.347 191.518C158.211 185.572 158.339 184.893 159.771 184.132C160.638 183.665 161.994 183.491 162.793 183.748C163.592 184.004 164.881 183.868 165.665 183.446C166.69 182.896 167.511 182.986 168.627 183.77C169.923 184.682 170.3 184.69 171.023 183.823C171.679 183.032 171.596 182.685 170.677 182.331C169.102 181.728 169.509 178.148 171.272 177.048C174.113 175.261 177.256 180.303 174.536 182.286C173.465 183.077 173.458 183.28 174.468 184.117C175.892 185.3 177.663 184.057 178.01 181.622C178.349 179.248 182.464 179.301 183.512 181.683C183.926 182.617 184.853 183.574 185.584 183.808C187.453 184.396 187.318 187.659 185.403 188.27C183.188 188.971 183.218 194.638 185.441 195.219C186.594 195.52 186.933 196.131 186.76 197.6C186.557 199.401 186.248 199.567 183.301 199.507C181.522 199.469 179.691 199.062 179.231 198.603C178.771 198.143 178.191 195.633 177.942 193.018C177.693 190.41 177.151 188.27 176.736 188.27C176.322 188.27 175.885 190.531 175.764 193.289C175.515 198.889 174.49 200.404 171.468 199.643C169.644 199.183 169.576 198.957 169.576 193.101V187.034L167.315 188.647C165.378 190.026 165.054 190.742 165.054 193.643C165.054 195.513 164.7 197.691 164.271 198.497C163.396 200.133 160.344 200.449 159.228 199.01ZM193.053 199.281C192.239 198.768 192.556 197.465 194.636 192.701C201.027 178.095 201.449 177.311 203.356 176.837C205.414 176.316 207.561 178.457 208.406 181.864C208.662 182.904 210.207 186.536 211.835 189.95C213.463 193.365 214.797 196.847 214.797 197.698C214.797 200.849 209.634 200.562 208.157 197.329C207.426 195.731 206.785 195.43 204.049 195.43C201.396 195.43 200.454 195.837 198.826 197.691C196.837 199.959 194.945 200.479 193.053 199.281ZM204.999 188.692C204.999 187.388 203.673 187.147 202.73 188.277C201.954 189.212 202.067 189.4 203.401 189.4C204.275 189.4 204.999 189.084 204.999 188.692ZM218.377 199.138C217.653 198.716 217.043 197.796 217.028 197.088C217.005 196.387 216.183 193.44 215.189 190.553C213.244 184.893 213.606 183.092 216.59 183.522C218.045 183.733 219.326 185.541 220.494 189.023C220.917 190.275 221.188 189.988 222.092 187.365C223.841 182.301 228.642 181.946 229.554 186.815C230.187 190.192 231.204 190.772 231.83 188.111C232.478 185.413 234.257 183.371 235.975 183.371C238.168 183.371 238.289 184.516 236.751 190.523C235.003 197.344 233.458 199.959 231.174 199.937C228.83 199.922 227.926 199.16 227.323 196.696C226.75 194.367 225.122 194.322 224.723 196.62C224.225 199.477 221.09 200.713 218.377 199.138ZM239.781 198.188C237.641 195.904 237.731 193.832 240.082 191.624C241.823 189.988 241.891 189.732 240.776 188.91C239.095 187.682 239.653 185.496 241.936 184.343C244.371 183.115 248.735 183.145 250.4 184.411C253.551 186.808 255.231 196.334 252.917 198.655C252.224 199.349 250.023 199.756 246.624 199.816C242.087 199.899 241.19 199.688 239.781 198.188ZM246.451 194.676C246.451 194.261 245.946 193.922 245.32 193.922C244.695 193.922 244.19 194.261 244.19 194.676C244.19 195.09 244.695 195.43 245.32 195.43C245.946 195.43 246.451 195.09 246.451 194.676ZM246.097 188.677C245.848 188.285 245.155 188.149 244.544 188.383C242.984 188.978 243.165 189.4 244.989 189.4C245.841 189.4 246.338 189.076 246.097 188.677ZM256.437 199.454C255.774 199.183 255.495 196.892 255.495 191.684C255.495 185.119 255.653 184.26 256.897 183.936C257.666 183.733 258.826 183.868 259.482 184.23C260.206 184.637 260.854 184.599 261.14 184.132C261.404 183.718 262.444 183.371 263.454 183.371C264.788 183.371 265.293 183.785 265.293 184.878C265.293 186.74 265.353 186.74 268.616 184.818C270.26 183.846 272.212 183.348 273.749 183.499L276.221 183.748L276.447 179.859C276.605 177.146 277.035 175.827 277.872 175.51C279.997 174.689 281.7 175.804 282.152 178.306C282.635 180.967 282.145 198.143 281.565 199.092C280.879 200.2 270.305 199.952 268.511 198.776C266.024 197.148 264.358 193.455 264.931 190.855C265.278 189.272 265.127 188.647 264.411 188.662C262.263 188.684 261.419 190.086 260.989 194.367C260.469 199.537 259.459 200.668 256.437 199.454ZM275.889 193.078C276.96 191.081 275.467 188.481 273.417 188.79C270.893 189.167 270.086 191.186 271.563 193.447C272.958 195.565 274.638 195.43 275.889 193.078ZM284.843 198.565C282.831 196.929 283.245 194.97 285.815 193.983C287.383 193.38 287.406 193.274 286.147 192.762C285.393 192.46 284.466 191.405 284.097 190.425C282.552 186.37 286.855 182.76 292.184 183.627C296.11 184.26 296.826 185.232 295.312 187.87C294.241 189.739 294.211 190.237 295.108 191.42C296.615 193.417 296.419 196.711 294.686 198.444C292.696 200.434 287.24 200.502 284.843 198.565ZM305.426 199.469C303.112 198.497 304.529 195.241 309.383 190.388C312.081 187.697 314.282 184.833 314.282 184.034C314.282 181.811 312.179 181.457 310.174 183.341C307.913 185.459 304.959 185.172 304.619 182.798C304.461 181.698 305.17 180.311 306.632 178.841C311.47 174.01 320.311 177.108 320.311 183.635C320.311 186.273 317.929 189.988 314.719 192.362C313.347 193.38 313.468 193.493 316.595 194.246C319.625 194.977 319.934 195.264 319.934 197.314V199.575L313.151 199.718C309.42 199.793 305.946 199.68 305.426 199.469ZM325.263 198.06C323.258 195.889 322.572 193.184 322.572 187.471C322.572 180.318 325.187 176.588 330.207 176.588C336.764 176.588 339.763 181.57 338.776 190.817C338.083 197.299 335.678 199.952 330.508 199.952C327.75 199.952 326.657 199.552 325.263 198.06ZM332.679 191.518C333.545 188.006 332.437 182.346 330.81 182.029C328.368 181.562 326.958 188.466 328.601 192.799C329.687 195.641 331.819 194.97 332.679 191.518ZM341.602 199.454C341.082 199.243 340.66 198.218 340.66 197.171C340.66 195.829 342.107 193.824 345.559 190.395C348.257 187.712 350.458 184.901 350.458 184.147C350.458 182.044 348.189 181.607 346.335 183.348C344.489 185.082 342.883 185.293 341.564 183.974C340.2 182.61 340.449 181.72 342.966 179.037C344.873 176.995 345.808 176.588 348.551 176.588C353.269 176.588 356.487 179.376 356.487 183.469C356.487 185.963 355.929 187.041 353.058 190.116L349.636 193.779L352.689 194.292C355.048 194.691 355.839 195.211 356.186 196.583C356.427 197.563 356.404 198.716 356.141 199.153C355.643 199.952 343.456 200.2 341.602 199.454ZM359.238 198.829C357.595 197.186 358.304 195.739 363.27 190.531C368.147 185.413 368.938 183.876 367.348 182.564C366.451 181.818 365.901 181.961 364.454 183.326C362.042 185.587 359.208 185.187 358.899 182.527C358.402 178.299 365.727 175.028 370.257 177.455C375.284 180.138 375.45 184.584 370.732 190.275L367.822 193.779L370.634 194.442C373.098 195.03 373.445 195.384 373.445 197.344V199.575L366.933 199.793C361.816 199.959 360.165 199.756 359.238 198.829ZM203.868 155.568C198.532 154.023 195.503 152.508 192.254 149.772L189.88 147.775L185.803 151.626C178.945 158.115 178.62 157.542 178.62 139.221C178.62 123.62 178.922 122.421 182.592 123.341C183.858 123.657 184.559 124.652 185.192 127.004C186.3 131.149 191.305 138.874 195.375 142.748C197.116 144.414 200.763 146.848 203.469 148.174C208.097 150.435 208.88 150.579 216.681 150.571C224.293 150.563 225.341 150.383 229.463 148.37C235.153 145.597 240.045 141.105 242.374 136.507C243.911 133.47 244.182 131.857 244.167 125.926C244.145 119.55 243.956 118.668 242.065 115.917C239.299 111.9 232.523 108.546 214.797 102.426C193.897 95.2138 193.792 95.1685 188.908 90.6691C172.327 75.3922 177.075 47.9283 198.118 37.4448C203.755 34.6411 204.042 34.5808 212.536 34.5507C220.675 34.5205 221.595 34.6788 227.609 37.083C231.129 38.4924 234.339 39.9394 234.731 40.2861C235.99 41.4091 237.422 40.987 240.391 38.5979C241.989 37.3166 243.919 36.3896 244.687 36.5328C245.969 36.7815 246.089 37.8894 246.278 50.8677C246.474 64.072 246.398 64.9613 245.064 65.3834C242.781 66.1069 241.311 65.097 240.354 62.1501C237.43 53.1061 231.649 46.0743 224.391 42.7205C220.253 40.8061 218.844 40.5499 212.536 40.5574C206.243 40.5725 204.856 40.8287 201.065 42.6752C192.722 46.7526 188.237 54.6888 189.511 63.1525C190.596 70.3878 196.837 74.1335 217.811 80.1403C235.214 85.1221 243.444 89.6969 249.051 97.4974C254.417 104.966 256.158 118.058 253.279 129.302C251.365 136.801 249.375 140.555 244.672 145.544C239.743 150.775 236.925 152.538 229.584 155.003C224.67 156.653 222.379 156.985 216.033 156.94C211.141 156.902 206.763 156.412 203.868 155.568ZM19.2337 153.262C18.9699 152.44 19.1282 151.084 19.5804 150.239C20.3115 148.868 21.133 148.702 27.1624 148.702H33.9153V95.5981V42.4944L26.9438 42.2758L19.9723 42.0572L19.7236 39.8791C19.5804 38.6431 19.9045 37.4221 20.4773 37.0604C21.0275 36.7137 28.1346 36.4198 36.2743 36.4198C47.7527 36.4047 51.2497 36.6308 51.9054 37.4146C52.5008 38.1381 52.8023 54.3119 52.938 93.3748L53.1339 148.325L60.5275 148.544L67.921 148.755L67.6873 151.558L67.4537 154.354L43.5774 154.55C20.3718 154.746 19.6935 154.709 19.2337 153.262ZM70.5438 153.744C69.7147 153.141 69.2927 152.056 69.4585 150.918C69.7072 149.147 69.9559 149.071 76.3094 148.86L82.904 148.642V95.5378V42.4341H77.0253C69.7675 42.4341 67.4236 40.6855 70.5212 37.588C71.5537 36.563 74.9754 36.4047 96.7113 36.4198C122.449 36.4348 129.089 36.985 137.575 39.8264C147.207 43.0521 156.47 50.0612 162.145 58.4195C172.003 72.9352 174.98 93.6537 169.976 112.902C166.072 127.908 154.676 143.615 143.929 148.807C133.061 154.061 127.83 154.701 95.6712 154.716C77.2741 154.731 71.5838 154.505 70.5438 153.744ZM127.8 147.179C134.357 145.423 137.967 143.343 141.766 139.138C148.971 131.164 150.825 122.165 150.915 94.8143C150.961 79.771 150.712 74.7591 149.694 69.9431C147.991 61.9542 144.826 55.3369 140.854 51.4781C134.297 45.1247 127.71 43.1274 112.674 42.939L102.123 42.8109L101.927 94.8143C101.821 123.416 101.897 147.24 102.093 147.76C102.726 149.418 120.995 149.003 127.8 147.179ZM247.212 153.608C246.677 152.968 246.489 151.679 246.76 150.594C247.22 148.755 247.416 148.702 253.837 148.702H260.447L270.131 119.497C275.452 103.436 281.323 85.8833 283.17 80.4945C285.009 75.1058 286.69 70.0185 286.901 69.1894C287.112 68.3604 289.712 60.3865 292.681 51.4781L298.085 35.2742H302.193C306.828 35.2742 306.134 34.3245 309.594 45.4488C310.438 48.1394 312.812 55.6007 314.877 62.0296C316.95 68.4584 320.047 78.2863 321.781 83.8861C323.506 89.4859 325.572 96.0956 326.363 98.5827C328.971 106.73 335.113 126.28 337.962 135.513C342.469 150.096 341.376 148.702 348.332 148.702H354.317L354.083 151.528L353.849 154.354H331.616H309.383V151.717V149.079L315.412 148.853C318.721 148.732 321.705 148.363 322.029 148.039C322.353 147.715 322.097 146.464 321.472 145.25C320.838 144.037 320.318 142.627 320.318 142.115C320.311 141.61 319.173 137.706 317.779 133.448C316.392 129.197 314.5 123.167 313.581 120.062C312.661 116.957 311.779 113.98 311.606 113.453C311.372 112.707 307.732 112.541 295.372 112.699L279.447 112.902L278.459 115.54C277.917 116.995 276.063 122.753 274.344 128.353C272.626 133.953 270.93 139.206 270.576 140.035C269.521 142.529 268.307 146.599 268.307 147.654C268.307 148.385 270.139 148.702 275.279 148.86C281.911 149.071 282.265 149.162 282.499 150.82C283.027 154.55 282.183 154.731 264.539 154.731C250.95 154.731 247.981 154.543 247.212 153.608ZM308.418 105.328C308.644 105.094 308.237 103.15 307.506 100.994C306.775 98.8389 305.675 95.3796 305.064 93.307C299.57 74.7742 295.809 62.9189 295.515 63.2053C295.327 63.4012 293.902 67.5389 292.35 72.4001C290.805 77.2688 287.941 86.1697 285.996 92.1765C284.044 98.1908 282.281 103.7 282.077 104.424C281.723 105.645 282.68 105.743 294.852 105.743C302.08 105.743 308.192 105.554 308.418 105.328ZM39.5678 23.8108C37.6309 23.3435 34.0811 20.0274 32.7169 17.4121C30.9759 14.0734 31.3603 8.54894 33.561 5.30815C37.0732 0.145495 42.9066 -1.38446 48.8757 1.30615C52.9757 3.16019 55.0181 6.46881 55.0181 11.2848C55.0181 19.4998 47.3834 25.6875 39.5678 23.8108Z" fill="#71767D"/>
</svg>
